<svg xmlns="http://www.w3.org/2000/svg" xmlns:xlink="http://www.w3.org/1999/xlink" width="12" height="12" version="1.1" viewBox="0 0 12 12"><title>Artboard</title><desc>Created with Sketch.</desc><g id="Artboard" fill="none" fill-rule="evenodd" stroke="none" stroke-width="1"><g id="open_in_new-24px"><polygon id="Path" points="0 0 12 0 12 12 0 12"/><path id="Shape" fill="#444" fill-rule="nonzero" d="M9.5,9.5 L2.5,9.5 L2.5,2.5 L6,2.5 L6,1.5 L2.5,1.5 C1.945,1.5 1.5,1.95 1.5,2.5 L1.5,9.5 C1.5,10.05 1.945,10.5 2.5,10.5 L9.5,10.5 C10.05,10.5 10.5,10.05 10.5,9.5 L10.5,6 L9.5,6 L9.5,9.5 Z M7,1.5 L7,2.5 L8.795,2.5 L3.88,7.415 L4.585,8.12 L9.5,3.205 L9.5,5 L10.5,5 L10.5,1.5 L7,1.5 Z"/></g></g></svg>