<svg xmlns="http://www.w3.org/2000/svg" xmlns:xlink="http://www.w3.org/1999/xlink" id="Layer_1" x="0" y="0" version="1.1" viewBox="0 0 93.5 93.5" xml:space="preserve" style="enable-background:new 0 0 93.5 93.5"><style type="text/css">.st0{fill:#2845ae}</style><path d="M90.1,12.9c-0.8-0.8-2-0.8-2.8,0l-3.2,3.2l-35.9,36c-0.8,0.8-2,0.8-2.8,0L30.1,36.9c-0.8-0.8-2-0.8-2.8,0	l-2.8,2.8c-0.8,0.8-0.8,2,0,2.8l20.9,20.9c0.8,0.8,2,0.8,2.8,0l4.2-4.2l31.7-31.8l5-5l3.8-3.8c0.8-0.8,0.8-2,0-2.8L90.1,12.9z" class="st0"/><path d="M81.8,41.2v35.6c0,2.8-2.2,5-5,5h-60c-2.8,0-5-2.2-5-5V41.2V32V16.8c0-2.8,2.2-5,5-5h60c0.1,0,0.3,0,0.4,0	l3.5-3.5l0.5-0.5c-1.3-0.7-2.8-1-4.4-1h-60c-5.5,0-10,4.5-10,10v60c0,5.5,4.5,10,10,10h60c5.5,0,10-4.5,10-10V36.2L81.8,41.2z" class="st0"/></svg>