<svg xmlns="http://www.w3.org/2000/svg" xmlns:xlink="http://www.w3.org/1999/xlink" id="Layer_1" x="0" y="0" version="1.1" viewBox="0 0 93.5 93.5" xml:space="preserve" style="enable-background:new 0 0 93.5 93.5"><style type="text/css">.st0{fill:#2845ae}</style><g><path d="M35.4,11.8c1.6,0,2.9,1.3,2.9,2.9v20.7c0,1.6-1.3,2.9-2.9,2.9H14.7c-1.6,0-2.9-1.3-2.9-2.9V14.7 c0-1.6,1.3-2.9,2.9-2.9H35.4 M35.4,6.8H14.7c-4.4,0-7.9,3.6-7.9,7.9v20.7c0,4.4,3.6,7.9,7.9,7.9h20.7c4.4,0,7.9-3.6,7.9-7.9V14.7 C43.4,10.4,39.8,6.8,35.4,6.8L35.4,6.8z" class="st0"/></g><g><path d="M78.7,11.8c1.6,0,2.9,1.3,2.9,2.9v20.7c0,1.6-1.3,2.9-2.9,2.9H58c-1.6,0-2.9-1.3-2.9-2.9V14.7 c0-1.6,1.3-2.9,2.9-2.9H78.7 M78.7,6.8H58c-4.4,0-7.9,3.6-7.9,7.9v20.7c0,4.4,3.6,7.9,7.9,7.9h20.7c4.4,0,7.9-3.6,7.9-7.9V14.7 C86.6,10.4,83.1,6.8,78.7,6.8L78.7,6.8z" class="st0"/></g><g><path d="M35.4,55c1.6,0,2.9,1.3,2.9,2.9v20.7c0,1.6-1.3,2.9-2.9,2.9H14.7c-1.6,0-2.9-1.3-2.9-2.9V58 c0-1.6,1.3-2.9,2.9-2.9H35.4 M35.4,50H14.7c-4.4,0-7.9,3.6-7.9,7.9v20.7c0,4.4,3.6,7.9,7.9,7.9h20.7c4.4,0,7.9-3.6,7.9-7.9V58 C43.4,53.6,39.8,50,35.4,50L35.4,50z" class="st0"/></g><g><path d="M78.7,55c1.6,0,2.9,1.3,2.9,2.9v20.7c0,1.6-1.3,2.9-2.9,2.9H58c-1.6,0-2.9-1.3-2.9-2.9V58 c0-1.6,1.3-2.9,2.9-2.9H78.7 M78.7,50H58C53.6,50,50,53.6,50,58v20.7c0,4.4,3.6,7.9,7.9,7.9h20.7c4.4,0,7.9-3.6,7.9-7.9V58 C86.6,53.6,83.1,50,78.7,50L78.7,50z" class="st0"/></g></svg>