<svg xmlns="http://www.w3.org/2000/svg" xmlns:xlink="http://www.w3.org/1999/xlink" width="140" height="140" version="1.1" viewBox="0 0 140 140"><title>Artboard</title><desc>Created with Sketch.</desc><g id="Artboard" fill="none" fill-rule="evenodd" stroke="none" stroke-width="1"><g id="Tutorial" fill-rule="nonzero" transform="translate(20.000000, 7.000000)"><path id="Path" fill="#5493F7" d="M93.1364384,72.9073973 L9.75205479,120.114247 C7.89871612,121.490015 5.4282968,121.703989 3.36601045,120.667371 C1.30372411,119.630752 0.00159452295,117.520488 -1.23256016e-05,115.212329 L-1.23256016e-05,49.8735616 C-0.00399301351,47.8852769 0.962412063,46.0201151 2.5890411,44.8767123 L85.9906849,1.11328767 C87.8571352,-0.193173129 90.2954286,-0.352716508 92.3162058,0.699393697 C94.336983,1.7515039 95.6046592,3.84050544 95.6046592,6.11876712 L95.6046592,68.0054795 C95.606075,69.9384699 94.6901752,71.7574598 93.1364384,72.9073973 Z"/><polygon id="Path" fill="#5493F7" points="98.556 5.213 92.714 .923 80.398 18.822"/><polygon id="Path" fill="#5493F7" points="9.433 125.206 2.58 120.183 12.997 111.717"/><path id="Path" fill="#2845AE" d="M98.1246575,78.5342466 L16.1383562,124.74863 C14.2850175,126.124398 11.8145982,126.338373 9.75231182,125.301754 C7.69002548,124.265136 6.38789589,122.154872 6.38628973,119.846712 L6.38628973,52.5316438 C6.38242132,50.541023 7.3484848,48.6733002 8.97534247,47.5261644 L90.9616438,4.76383562 C92.8280941,3.45737482 95.2663876,3.29783144 97.2871647,4.34994164 C99.3079419,5.40205185 100.575641,7.49105338 100.575641,9.76931507 L100.575641,73.6323288 C100.581088,75.5622593 99.6718846,77.3806652 98.1246575,78.5342466 Z"/><path id="Path" fill="#2845AE" d="M54.1627397,120.191918 L70.56,84.2991781 L36.4019178,109.60274 L52.1605479,120.735616 C52.4883941,120.966956 52.9023418,121.040004 53.2895678,120.934852 C53.6767938,120.8297 53.9969365,120.557308 54.1627397,120.191918 Z"/><polygon id="Path" fill="#5392F7" points="28.712 79.311 28.712 73.943 43.151 59.056 43.151 64.545 33.062 74.59 43.151 75.358 43.151 80.925"/><polygon id="Path" fill="#5392F7" points="58.115 45.74 61.956 44.014 48.76 86.068 44.92 87.794"/><polygon id="Path" fill="#5392F7" points="64.165 65.753 74.219 55.708 64.148 54.939 64.148 49.373 78.569 50.987 78.569 56.355 64.165 71.233"/></g></g></svg>